<svg xmlns="http://www.w3.org/2000/svg" width="760" height="200" viewBox="0 0 760 200" font-family="ui-sans-serif,Segoe UI,Helvetica,Arial,sans-serif">
  <defs>
    <linearGradient id="bg" x1="0" y1="0" x2="1" y2="1">
      <stop offset="0" stop-color="#0a0a0c"/>
      <stop offset="0.55" stop-color="#101216"/>
      <stop offset="1" stop-color="#05060a"/>
    </linearGradient>
    <linearGradient id="steel" x1="0" y1="0" x2="0" y2="1">
      <stop offset="0" stop-color="#f4f6fb"/>
      <stop offset="1" stop-color="#9aa3b2"/>
    </linearGradient>
    <radialGradient id="glow" cx="0.5" cy="0.42" r="0.6">
      <stop offset="0" stop-color="#2b3140" stop-opacity="0.9"/>
      <stop offset="1" stop-color="#0b0c10" stop-opacity="0"/>
    </radialGradient>
  </defs>

  <rect width="760" height="200" rx="22" fill="url(#bg)"/>
  <rect x="1.5" y="1.5" width="757" height="197" rx="20.5" fill="none" stroke="#23262e" stroke-width="1.5"/>
  <ellipse cx="120" cy="96" rx="150" ry="120" fill="url(#glow)"/>

  <g transform="translate(60,40)">
    <path d="M50 4 L92 20 V62 C92 92 73 112 50 122 C27 112 8 92 8 62 V20 Z"
          fill="#0e1014" stroke="url(#steel)" stroke-width="3" stroke-linejoin="round"/>
    <path d="M50 12 L84 25 V62 C84 86 68 103 50 112 C32 103 16 86 16 62 V25 Z"
          fill="none" stroke="#2c313c" stroke-width="1.4"/>
    <circle cx="50" cy="60" r="17" fill="none" stroke="url(#steel)" stroke-width="2.4"/>
    <circle cx="50" cy="60" r="3.4" fill="#f4f6fb"/>
    <line x1="50" y1="30" x2="50" y2="43" stroke="url(#steel)" stroke-width="2.4" stroke-linecap="round"/>
    <line x1="50" y1="77" x2="50" y2="90" stroke="url(#steel)" stroke-width="2.4" stroke-linecap="round"/>
    <line x1="20" y1="60" x2="33" y2="60" stroke="url(#steel)" stroke-width="2.4" stroke-linecap="round"/>
    <line x1="67" y1="60" x2="80" y2="60" stroke="url(#steel)" stroke-width="2.4" stroke-linecap="round"/>
    <line x1="50" y1="60" x2="64" y2="49" stroke="#f4f6fb" stroke-width="2.4" stroke-linecap="round" opacity="0.85"/>
  </g>

  <g transform="translate(196,0)">
    <text x="0" y="98" font-size="58" font-weight="800" letter-spacing="-1.5">
      <tspan fill="#7d8694">allow</tspan><tspan fill="#f4f6fb">Scanner</tspan>
    </text>
    <text x="2" y="132" font-family="ui-monospace,SFMono-Regular,Consolas,monospace" font-size="17" letter-spacing="1.5" fill="#6b7280">// async web security scanner</text>
    <rect x="2" y="148" width="360" height="2" rx="1" fill="#23262e"/>
    <text x="2" y="174" font-family="ui-monospace,SFMono-Regular,Consolas,monospace" font-size="14" letter-spacing="0.5" fill="#4b5563">17 modules · one score · runs in CI</text>
  </g>
</svg>
